<svg id="Pfluger-logo" xmlns="http://www.w3.org/2000/svg" width="221.804" height="39.673" viewBox="0 0 221.804 39.673">
  <g id="Group_172790" data-name="Group 172790">
    <path id="Path_38257" data-name="Path 38257" d="M265.9,139.5a19.842,19.842,0,1,0-14.878,33.844.677.677,0,0,0,.153.019.652.652,0,0,0,.106-.009c.2.006.4.009.594.009a19.837,19.837,0,0,0,19.392-15.64.631.631,0,0,0,.041-.195A19.813,19.813,0,0,0,265.9,139.5ZM233.989,158.22a41.225,41.225,0,0,1,15.86,13.689A18.54,18.54,0,0,1,233.989,158.22Zm17.89,13.8c-.113,0-.226,0-.338,0a42.441,42.441,0,0,0-17.9-15.433q-.105-.623-.167-1.259h.624c9.329,0,19.4,5.552,26.446,14.537A18.37,18.37,0,0,1,251.879,172.021Zm9.839-2.841a42.963,42.963,0,0,0-12.15-10.7,34.9,34.9,0,0,0-7.08-3.154H246.3c7.015,0,14.391,3.065,20.829,8.644A18.637,18.637,0,0,1,261.718,169.18Zm-19.777-18.437a3.643,3.643,0,1,1,3.643-3.643A3.646,3.646,0,0,1,241.941,150.743Zm25.92,12.079a39.372,39.372,0,0,0-9.846-6.254,33.446,33.446,0,0,0-3.3-1.243h3.8a27.9,27.9,0,0,1,11.343,2.55A18.39,18.39,0,0,1,267.862,162.822Zm2.266-6.3a29.139,29.139,0,0,0-11.616-2.545h-2.2V151.1a6.247,6.247,0,1,0-1.343,0v2.876H242.613v-1.939a4.987,4.987,0,1,0-1.344,0v1.939h-7.877c0-.149-.006-.3-.006-.452a18.493,18.493,0,1,1,36.742,3ZM255.641,149.8a4.9,4.9,0,1,1,4.9-4.9A4.91,4.91,0,0,1,255.641,149.8Z" transform="translate(-232.043 -133.693)" fill="#09bf05"/>
    <path id="Path_38258" data-name="Path 38258" d="M240.622,143.212a.672.672,0,1,0,0,1.344.956.956,0,0,1,.956.956.672.672,0,1,0,1.344,0A2.3,2.3,0,0,0,240.622,143.212Z" transform="translate(-230.724 -132.105)" fill="#09bf05"/>
    <path id="Path_38259" data-name="Path 38259" d="M252.363,140.242a.672.672,0,0,0,0,1.343,2.219,2.219,0,0,1,2.217,2.216.672.672,0,1,0,1.343,0A3.563,3.563,0,0,0,252.363,140.242Z" transform="translate(-228.765 -132.6)" fill="#09bf05"/>
  </g>
  <g id="Group_172791" data-name="Group 172791" transform="translate(41.659 14.658)">
    <path id="Path_38260" data-name="Path 38260" d="M296.367,153.633c-.322,1.476-2.2,2.684-4.212,2.684H280.644l-1.072,5.017a1.312,1.312,0,0,1-1.209,1.02H268.57a.807.807,0,0,1-.805-1.02l3.006-14.086a1.289,1.289,0,0,1,1.208-.993H294.3c2.012,0,3.38,1.207,3.058,2.684Zm-12.154-5.044h-1.932l-1.208,5.688h1.932c.8,0,1.529-.349,1.636-.777l.859-4.1C285.608,148.939,285.019,148.589,284.214,148.589Z" transform="translate(-267.746 -146.255)" fill="#09bf05"/>
    <path id="Path_38261" data-name="Path 38261" d="M310.906,147.812a1.187,1.187,0,0,1-1.127.777h-2.6a2.394,2.394,0,0,0-2.066,1.905l-.188.912H308.6c.537,0,.645.242.51.778l-.161.778c-.106.456-.349.805-.831.805h-3.7l-2.066,9.659c-.242,1.181-1.771,2.147-3.38,2.147h-4.883a4.055,4.055,0,0,1-3.6-2.121l.188-.858a.791.791,0,0,0,.778.537,1.4,1.4,0,0,0,1.261-1.045l2.87-13.5c.268-1.26,2.2-2.334,3.327-2.334h11.377c.832,0,.832.537.671,1.261Z" transform="translate(-263.952 -146.255)" fill="#09bf05"/>
    <path id="Path_38262" data-name="Path 38262" d="M328.782,161.334a1.309,1.309,0,0,1-1.208,1.02H307.049a.807.807,0,0,1-.805-1.02l3.006-14.086a1.286,1.286,0,0,1,1.207-.993h9.793a.8.8,0,0,1,.805.993L318.56,159h9.713a.8.8,0,0,1,.805.993Z" transform="translate(-261.326 -146.255)" fill="#09bf05"/>
    <path id="Path_38263" data-name="Path 38263" d="M354,159.67c-.3,1.476-2.2,2.684-4.212,2.684H330.124c-2.012,0-3.38-1.208-3.085-2.684l2.657-12.422a1.289,1.289,0,0,1,1.207-.993H340.7a.8.8,0,0,1,.805.993l-2.307,10.867a1.381,1.381,0,0,0,1.26,1.879,2.346,2.346,0,0,0,2.093-1.879l2.308-10.867a1.289,1.289,0,0,1,1.208-.993h9.793a.8.8,0,0,1,.805.993Z" transform="translate(-257.86 -146.255)" fill="#09bf05"/>
    <path id="Path_38264" data-name="Path 38264" d="M380.708,150.6a1.309,1.309,0,0,1-1.208,1.02h-9.793a.807.807,0,0,1-.805-1.02l.027-.107a1.429,1.429,0,0,0-1.288-1.905,2.348,2.348,0,0,0-2.065,1.905l-1.61,7.621a1.381,1.381,0,0,0,1.26,1.879,2.347,2.347,0,0,0,2.093-1.879l.59-2.818h-1.69l.428-2.012h12.477a.806.806,0,0,1,.805,1.02l-1.5,7.029a1.309,1.309,0,0,1-1.208,1.02H354.895c-2.012,0-3.38-1.208-3.085-2.684l2.281-10.731c.322-1.477,2.2-2.684,4.212-2.684H378c2.013,0,3.382,1.207,3.059,2.684Z" transform="translate(-253.727 -146.255)" fill="#09bf05"/>
    <path id="Path_38265" data-name="Path 38265" d="M401.285,148.589a1.278,1.278,0,0,1-1.181,1.02h-9.686l-.7,3.274h7.11a.776.776,0,0,1,.753,1.02l-.188.858a1.283,1.283,0,0,1-1.181.993H389.1l-.7,3.247h9.685a.8.8,0,0,1,.778,1.019l-.3,1.343a1.281,1.281,0,0,1-1.18.992H377.03a.773.773,0,0,1-.751-.992l3-14.114a1.283,1.283,0,0,1,1.181-.993H400.8a.791.791,0,0,1,.778.993Z" transform="translate(-249.641 -146.255)" fill="#09bf05"/>
    <path id="Path_38266" data-name="Path 38266" d="M426.159,160.207a6.585,6.585,0,0,1-4.507,2.147h-7.111c-1.61,0-1.879-.859-1.852-2.2,0-1.985-.564-4.856-1.9-4.856l.428-2.012h1.1c.537,0,1.394-.054,1.557-.778l.643-3.14c.134-.537-.643-.778-1.074-.778h-2.2l-2.711,12.773a1.313,1.313,0,0,1-1.18.992H397.8a.782.782,0,0,1-.75-.992l3-14.114a1.315,1.315,0,0,1,1.181-.993h21.706c1.959,0,3.3,1.153,2.925,2.924l-.7,3.247a4.058,4.058,0,0,1-4.159,2.924h-.349a3.452,3.452,0,0,1,2.119,1.048,5.418,5.418,0,0,1,1.047,1.877c.3.751.456,1.636,1.476,1.636a1.294,1.294,0,0,0,1.02-.537Z" transform="translate(-246.176 -146.255)" fill="#09bf05"/>
  </g>
</svg>
